<?xml version="1.0" standalone="no"?><!DOCTYPE svg PUBLIC "-//W3C//DTD SVG 1.1//EN" "http://www.w3.org/Graphics/SVG/1.1/DTD/svg11.dtd"><svg t="1651507834868" class="icon" viewBox="0 0 1024 1024" version="1.1" xmlns="http://www.w3.org/2000/svg" p-id="23463" xmlns:xlink="http://www.w3.org/1999/xlink" width="200" height="200"><defs><style type="text/css">@font-face { font-family: feedback-iconfont; src: url("//at.alicdn.com/t/font_1031158_u69w8yhxdu.woff2?t=1630033759944") format("woff2"), url("//at.alicdn.com/t/font_1031158_u69w8yhxdu.woff?t=1630033759944") format("woff"), url("//at.alicdn.com/t/font_1031158_u69w8yhxdu.ttf?t=1630033759944") format("truetype"); }
</style></defs><path d="M707.456 391.872C675.136 246.976 530.496 137.6 357.12 137.6 159.936 137.6 0 278.976 0 453.376c0 84.096 37.184 160.448 97.792 216.96 18.688 17.664 19.52 47.168 1.792 65.792l-28.672 30.144s271.36 2.944 286.272 2.944c69.12 0 133.632-17.408 188.288-47.488 101.376-55.68 168.832-155.072 168.832-268.416-0.064-20.992-2.368-41.536-6.848-61.44zM185.984 509.44c-31.04 0-56.064-25.024-56.064-56.064 0-30.976 25.024-56.064 56.064-56.064 30.976 0 56.064 25.088 56.064 56.064 0 31.04-25.088 56.064-56.064 56.064z m171.136 0c-30.976 0-56.064-25.024-56.064-56.064 0-30.976 25.088-56.064 56.064-56.064s56.064 25.088 56.064 56.064c0 31.04-25.088 56.064-56.064 56.064z m173.184-0.064c-0.704 0.064-1.344 0.064-2.048 0.064-30.976 0-56.064-25.024-56.064-56.064 0-30.976 25.088-56.064 56.064-56.064 28.48 0 51.968 21.184 55.552 48.64 0.32 2.496 0.512 4.928 0.512 7.488a55.776 55.776 0 0 1-54.016 55.936z" fill="#3b82f6" p-id="23464"></path><path d="M956.096 809.216l19.584 20.544h-159.296c-1.92 0-3.84 0.128-5.76 0.32-9.856 1.088-19.84 1.728-30.016 1.728-85.184 0-160.192-38.72-203.584-97.344 101.376-55.68 168.832-155.072 168.832-268.416 0-21.056-2.368-41.6-6.848-61.504 13.504-2.112 27.456-3.136 41.6-3.136 134.4 0 243.328 96.32 243.328 215.168 0 57.28-25.344 109.312-66.624 147.84-12.672 11.968-13.184 32.064-1.216 44.8z" fill="#3b82f6" p-id="23465"></path></svg>