<?xml version="1.0" standalone="no"?><!DOCTYPE svg PUBLIC "-//W3C//DTD SVG 1.1//EN" "http://www.w3.org/Graphics/SVG/1.1/DTD/svg11.dtd"><svg t="1651821290324" class="icon" viewBox="0 0 1024 1024" version="1.1" xmlns="http://www.w3.org/2000/svg" p-id="9722" xmlns:xlink="http://www.w3.org/1999/xlink" width="200" height="200"><defs><style type="text/css">@font-face { font-family: feedback-iconfont; src: url("//at.alicdn.com/t/font_1031158_u69w8yhxdu.woff2?t=1630033759944") format("woff2"), url("//at.alicdn.com/t/font_1031158_u69w8yhxdu.woff?t=1630033759944") format("woff"), url("//at.alicdn.com/t/font_1031158_u69w8yhxdu.ttf?t=1630033759944") format("truetype"); }
</style></defs><path d="M686.4 224c-6.4-6.4-6.4-16 0-22.4l68-68c6.4-6.4 16-6.4 22.4 0l112.8 112.8c6.4 6.4 6.4 16 0 22.4l-68 68c-6.4 6.4-16 6.4-22.4 0L686.4 224zM384 776l372-372c5.6-5.6 4.8-15.2-1.6-20.8L641.6 269.6c-6.4-6.4-16-7.2-20.8-1.6L248 640l-56 192 192-56zM64 896v64h896v-64H64z" p-id="9723" fill="#3b82f6"></path></svg>