<?xml version="1.0" standalone="no"?><!DOCTYPE svg PUBLIC "-//W3C//DTD SVG 1.1//EN" "http://www.w3.org/Graphics/SVG/1.1/DTD/svg11.dtd"><svg t="1651411861508" class="icon" viewBox="0 0 1536 1024" version="1.1" xmlns="http://www.w3.org/2000/svg" p-id="19479" xmlns:xlink="http://www.w3.org/1999/xlink" width="300" height="200"><defs><style type="text/css">@font-face { font-family: feedback-iconfont; src: url("//at.alicdn.com/t/font_1031158_u69w8yhxdu.woff2?t=1630033759944") format("woff2"), url("//at.alicdn.com/t/font_1031158_u69w8yhxdu.woff?t=1630033759944") format("woff"), url("//at.alicdn.com/t/font_1031158_u69w8yhxdu.ttf?t=1630033759944") format("truetype"); }
</style></defs><path d="M1440.062427 0 92.101972 0C41.447585 0 0 36.500798 0 85.698099L0 935.055261C0 957.471905 8.653034 978.009787 22.826748 993.755162 40.808887 1012.526343 67.549374 1024 95.961355 1024L1443.898028 1024C1494.552415 1024 1536 987.522275 1536 938.324974L1536 88.941444C1536 66.524796 1527.370748 45.977029 1513.173252 30.231654 1495.191113 11.49673 1468.477806 0 1440.062427 0L1440.062427 0ZM768 923.146522C755.141058 925.064839 741.538096 926.841428 727.140155 928.489468 701.619313 931.439459 675.915012 933.898335 650.074821 935.945201 624.170079 937.939332 599.393254 939.61374 575.666213 940.721225 551.92218 941.9177 531.327484 942.484626 513.902512 942.484626 496.423183 942.484626 476.134246 941.9177 453.001739 940.721225 429.859035 939.587372 405.945139 937.912964 381.314399 935.945201 356.656483 933.898335 332.131065 931.568007 307.751728 928.954214 283.46752 926.300869 261.398378 923.51898 241.489946 920.634909 221.676643 917.750835 204.836012 914.830508 191.008827 911.893701 177.181637 908.970079 168.460657 906.086009 164.879857 903.13931 158.839384 898.46547 154.181625 884.186847 150.879408 860.313333 147.560203 836.41675 148.925934 805.529176 154.912055 767.650615 157.939087 746.071175 166.816344 729.630325 181.574404 718.209404 196.264514 706.893959 213.383728 697.816554 232.945627 691.118917 252.453175 684.477312 272.745505 678.488335 293.819224 673.198124 314.801214 667.957358 333.473013 660.373076 349.702122 650.484831 362.336841 642.926921 371.971705 635.57666 378.501402 628.612041 385.187372 621.621054 389.967433 614.626772 392.977481 607.635781 395.950153 600.618427 397.489152 593.343978 397.489152 585.736624 397.489152 578.205078 397.210569 569.783592 396.561675 560.409538 395.392991 546.994491 390.548378 536.344854 382.122968 528.516659 373.721337 520.639027 364.392232 512.642736 354.173027 504.468454 349.396359 500.384611 345.163271 494.656022 341.541705 487.444198 337.957508 480.133493 334.665479 472.704124 331.641845 465.119843 328.628403 456.378639 325.655728 447.05732 322.591323 437.178968 318.395604 435.98249 314.189692 433.961991 309.956604 431.038369 306.372407 428.127931 302.49604 424.047382 298.290128 418.846164 294.070627 413.57903 290.472843 406.007932 287.476385 396.057062 283.824241 386.116085 282.512867 377.091416 283.399574 368.966576 284.262499 360.818662 285.961168 353.788123 288.363092 348.019983 290.751422 341.556367 294.682149 335.49158 300.080527 329.634443 299.523365 307.488077 300.664872 285.341711 303.719084 263.172272 306.121004 244.513159 310.48659 224.453211 316.751291 202.886956 323.148489 181.310811 332.528552 162.088068 345.163271 145.182468 356.602127 128.817426 369.41011 115.554 383.515878 105.382294 397.648827 95.174331 412.036575 87.178039 426.818414 81.320905 441.508528 75.486841 456.266584 71.597466 470.983877 69.501158 485.673988 67.490549 499.9802 66.448987 513.848155 66.448987 531.300308 66.448987 548.552016 68.367309 565.64405 72.138024 582.77685 75.95159 598.904038 80.97152 613.95087 87.44832 628.933153 93.822939 642.339072 101.133645 654.02933 109.298037 665.801121 117.472318 674.984141 125.597158 681.554604 133.787919 697.199367 152.417368 708.611043 172.991503 715.843986 195.434518 723.07693 217.861051 728.121988 239.275685 731.145622 259.694907 734.186244 282.998199 735.657293 306.598137 735.657293 330.521088 739.866602 333.43153 743.168819 337.192357 745.570739 341.826648 747.96247 345.907196 749.912547 351.200702 751.437952 357.624763 752.976947 364.048823 753.109445 371.890198 751.889799 381.171964 750.656563 393.456457 748.159517 403.229334 744.232188 410.437862 740.304859 417.765051 735.935876 423.480455 731.145622 427.537931 725.720064 432.261215 720.053296 435.415563 714.039998 437.205336 711.026556 447.05732 708.002918 456.405007 704.962297 465.146211 701.952252 472.730492 698.541319 480.159861 694.610593 487.470566 690.683264 494.68239 686.344858 500.410979 681.527424 504.491527 670.180297 513.23603 660.796837 520.665395 653.618249 526.79281 646.371716 532.920225 641.595052 543.23366 639.193132 557.848485 637.38914 566.589689 636.750442 575.475924 637.38914 584.526961 637.973486 593.538447 640.531683 602.589484 645.046755 611.653705 649.558426 620.655301 656.45843 629.241593 665.828301 637.415874 675.130225 645.567082 688.176026 652.867899 704.989477 659.318331 720.053296 665.126023 736.414899 670.389866 754.145635 675.027449 758.789804 676.250295 763.383011 677.512697 767.921861 678.83772L767.921861 923.146522 768 923.146522ZM846.842141 212.468663 1320.757925 212.468663C1340.425147 212.468663 1356.375673 227.917392 1356.375673 246.998404 1356.375673 266.092599 1340.425147 281.570995 1320.757925 281.570995L846.842141 281.570995C827.174923 281.570995 811.224397 266.092599 811.224397 246.998404 811.224397 227.917392 827.174923 212.468663 846.842141 212.468663L846.842141 212.468663ZM1361.909943 439.845497C1361.909943 458.939692 1345.973007 474.401605 1326.292198 474.401605L1198.52152 474.401605C1178.840711 474.401605 1162.863005 458.96606 1162.863005 439.845497 1162.863005 420.790853 1178.840711 405.315756 1198.52152 405.315756L1326.292198 405.315756C1345.973007 405.315756 1361.909943 420.790853 1361.909943 439.845497L1361.909943 439.845497ZM1016.695713 439.845497C1016.695713 458.939692 1000.745187 474.401605 981.050789 474.401605L853.28011 474.401605C833.599298 474.401605 817.645374 458.96606 817.645374 439.845497 817.645374 420.790853 833.599298 405.315756 853.28011 405.315756L981.050789 405.315756C1000.745187 405.315756 1016.695713 420.790853 1016.695713 439.845497L1016.695713 439.845497ZM981.050789 840.230312 853.28011 840.230312C833.599298 840.230312 817.645374 824.75192 817.645374 805.657724 817.645374 786.576709 833.599298 771.12798 853.28011 771.12798L981.050789 771.12798C1000.745187 771.12798 1016.695713 786.576709 1016.695713 805.657724 1016.695713 824.75192 1000.745187 840.230312 981.050789 840.230312L981.050789 840.230312ZM853.28011 649.275173C833.599298 649.275173 817.645374 633.826439 817.645374 614.732244 817.645374 595.651233 833.599298 580.172837 853.28011 580.172837L1327.182303 580.172837C1346.863111 580.172837 1362.800048 595.651233 1362.800048 614.732244 1362.800048 633.826439 1346.863111 649.275173 1327.182303 649.275173L853.28011 649.275173Z" p-id="19480" fill="#3b82f6"></path></svg>