<?xml version="1.0" standalone="no"?><!DOCTYPE svg PUBLIC "-//W3C//DTD SVG 1.1//EN" "http://www.w3.org/Graphics/SVG/1.1/DTD/svg11.dtd"><svg t="1651411892561" class="icon" viewBox="0 0 1024 1024" version="1.1" xmlns="http://www.w3.org/2000/svg" p-id="20300" xmlns:xlink="http://www.w3.org/1999/xlink" width="200" height="200"><defs><style type="text/css">@font-face { font-family: feedback-iconfont; src: url("//at.alicdn.com/t/font_1031158_u69w8yhxdu.woff2?t=1630033759944") format("woff2"), url("//at.alicdn.com/t/font_1031158_u69w8yhxdu.woff?t=1630033759944") format("woff"), url("//at.alicdn.com/t/font_1031158_u69w8yhxdu.ttf?t=1630033759944") format("truetype"); }
</style></defs><path d="M512 36.571429c262.582857 0 475.428571 212.845714 475.428571 475.428571S774.582857 987.428571 512 987.428571 36.571429 774.582857 36.571429 512 249.417143 36.571429 512 36.571429z m13.275429 391.972571c-7.954286-8.923429-23.899429-8.923429-31.872 0-3.474286 4.48-5.961143 8.941714-5.632 14.262857l0.310857 2.340572 2.669714 38.290285-33.225143-22.966857-1.773714-1.097143a28.16 28.16 0 0 0-14.153143-4.022857c-11.958857 1.28-21.266286 10.221714-21.266286 20.425143 0 6.966857 4.388571 13.933714 12.178286 18.011429l40.96 19.017142-39.588571 17.042286c-4.205714 2.121143-10.898286 9.325714-10.898286 18.688 0 11.501714 9.307429 21.705143 21.266286 21.705143 5.686857 0 10.422857-1.883429 14.153142-4.022857l1.792-1.097143 33.206858-22.966857-2.651429 38.290286-0.329143 2.340571c-0.329143 5.321143 2.139429 9.801143 5.632 14.262857 3.986286 3.84 9.307429 6.381714 15.945143 6.381714s11.958857-2.56 15.945143-6.381714c3.419429-3.291429 4.882286-8.448 5.229714-13.056l0.073143-2.267428-2.651429-38.290286 33.206858 22.985143 1.792 1.078857c3.748571 2.139429 8.466286 4.022857 14.153142 4.022857 11.958857 0 21.266286-10.221714 21.266286-21.705143a19.2 19.2 0 0 0-12.379428-18.395428l-2.249143-0.749715-38.509715-17.865143 38.509715-17.883428 2.377143-1.499429c7.387429-5.412571 9.581714-14.153143 9.581714-17.645714 0-11.483429-9.289143-20.425143-21.248-20.425143-5.705143 0-10.422857 1.883429-14.153143 4.022857l-1.792 1.097143-33.206857 22.966857 2.651428-38.290285 0.310858-2.340572c0.329143-5.321143-2.139429-9.782857-5.632-14.262857z m221.860571-1.28c-7.972571-8.923429-23.917714-8.923429-31.890286 0-3.474286 4.48-5.942857 8.96-5.632 14.262857l0.329143 2.340572 2.651429 38.290285-33.206857-22.966857-1.499429-0.950857a24.722286 24.722286 0 0 0-14.445714-4.169143c-11.958857 1.28-21.248 10.221714-21.248 20.425143 0 6.966857 4.388571 13.933714 12.178285 18.011429l40.96 19.017142-38.528 16.585143-1.188571 0.822857c-4.187429 3.145143-10.770286 10.331429-10.770286 19.602286 0 11.501714 9.307429 21.705143 21.248 21.705143 5.705143 0 10.422857-1.883429 14.153143-4.022857l1.792-1.097143 33.206857-22.966857-2.651428 38.290286-0.310857 2.340571c-0.329143 5.321143 2.139429 9.801143 5.632 14.262857 3.986286 3.84 9.289143 6.381714 15.926857 6.381714 6.656 0 11.958857-2.56 15.945143-6.381714 3.419429-3.291429 4.882286-8.448 5.229714-13.056l0.091428-2.267428-2.651428-38.290286 33.206857 22.985143 1.792 1.078857c3.730286 2.139429 8.448 4.022857 14.153143 4.022857 11.940571 0 21.248-10.221714 21.248-21.705143a19.2 19.2 0 0 0-12.379429-18.395428l-2.230857-0.749715-38.528-17.865143 38.528-17.883428 2.596572-1.243429c9.746286-5.211429 12.013714-13.184 12.013714-17.901714 0-11.483429-9.307429-20.425143-21.248-20.425143-5.705143 0-10.422857 1.883429-14.153143 4.022857l-37.668571 22.784 2.669714-38.290285 0.310857-2.340572c0.329143-5.302857-2.139429-9.782857-5.632-14.262857z m-441.051429 0c-7.972571-8.923429-23.899429-8.923429-31.872 0-3.492571 4.48-5.961143 8.96-5.632 14.262857l0.310858 2.340572 2.651428 38.290285-33.206857-22.966857-1.792-1.097143a28.16 28.16 0 0 0-14.153143-4.022857c-11.940571 1.28-21.248 10.221714-21.248 21.705143 0 6.966857 4.388571 13.933714 12.178286 18.011429l40.96 19.017142-38.528 16.585143-1.554286 0.402286c-6.272 2.066286-13.056 9.325714-13.056 18.742857 0 11.501714 9.307429 21.705143 21.248 21.705143 5.705143 0 10.422857-1.883429 14.153143-4.022857l1.792-1.097143 33.206857-24.246857-2.651428 38.308571-0.310858 2.322286c-0.329143 5.321143 2.139429 9.801143 5.632 14.262857 3.986286 3.84 9.289143 6.4 15.945143 6.4 6.637714 0 11.940571-2.56 15.926857-6.4 3.419429-3.291429 4.882286-8.429714 5.229715-13.056l0.091428-2.267428-2.651428-38.290286 33.206857 22.985143 1.792 1.097143c3.730286 2.121143 8.448 4.004571 14.153143 4.004571 11.940571 0 21.248-10.203429 21.248-21.705143a19.2 19.2 0 0 0-12.379429-18.395428l-2.230857-0.731429-38.528-17.883429 38.528-17.865142 2.596571-1.243429c9.746286-5.229714 12.013714-13.202286 12.013715-17.92 0-11.483429-9.307429-20.425143-21.248-20.425143-5.705143 0-10.422857 1.883429-14.153143 4.022857l-1.792 1.097143-33.206857 22.966857 2.651428-38.290285 0.310857-2.340572c0.329143-5.302857-2.139429-9.782857-5.632-14.262857z" fill="#3b82f6" p-id="20301"></path></svg>