<?xml version="1.0" standalone="no"?><!DOCTYPE svg PUBLIC "-//W3C//DTD SVG 1.1//EN" "http://www.w3.org/Graphics/SVG/1.1/DTD/svg11.dtd"><svg t="1652919188533" class="icon" viewBox="0 0 1024 1024" version="1.1" xmlns="http://www.w3.org/2000/svg" p-id="16661" xmlns:xlink="http://www.w3.org/1999/xlink" width="200" height="200"><defs><style type="text/css">@font-face { font-family: feedback-iconfont; src: url("//at.alicdn.com/t/font_1031158_u69w8yhxdu.woff2?t=1630033759944") format("woff2"), url("//at.alicdn.com/t/font_1031158_u69w8yhxdu.woff?t=1630033759944") format("woff"), url("//at.alicdn.com/t/font_1031158_u69w8yhxdu.ttf?t=1630033759944") format("truetype"); }
</style></defs><path d="M699.733 776.533C644.267 810.667 580.267 832 516.267 832 328.533 832 179.2 686.933 179.2 503.467c0-46.934 8.533-89.6 29.867-132.267l4.266 29.867c4.267 17.066 25.6 25.6 42.667 21.333 17.067-4.267 25.6-25.6 21.333-42.667l-38.4-115.2c-4.266-17.066-25.6-25.6-42.666-21.333L76.8 285.867c-17.067 4.266-25.6 25.6-21.333 42.666 4.266 17.067 25.6 25.6 42.666 21.334l46.934-12.8C119.467 392.533 102.4 448 102.4 512c0 221.867 183.467 401.067 409.6 401.067 81.067 0 157.867-21.334 226.133-64 17.067-12.8 21.334-34.134 12.8-51.2-12.8-25.6-34.133-34.134-51.2-21.334z m256-81.066c-8.533-17.067-25.6-25.6-42.666-17.067l-38.4 17.067c34.133-59.734 51.2-123.734 51.2-192 0-221.867-183.467-401.067-409.6-401.067-85.334 0-162.134 25.6-230.4 68.267-17.067 12.8-21.334 34.133-12.8 51.2 12.8 17.066 34.133 21.333 51.2 8.533 55.466-34.133 119.466-55.467 187.733-55.467 187.733 0 337.067 145.067 337.067 328.534 0 55.466-12.8 106.666-38.4 153.6 0 0 0 4.266-4.267 4.266L793.6 627.2c-8.533-17.067-25.6-25.6-42.667-17.067-17.066 8.534-25.6 25.6-17.066 42.667L780.8 768c8.533 17.067 25.6 25.6 42.667 17.067l115.2-46.934c17.066-8.533 25.6-25.6 17.066-42.666z" p-id="16662"></path></svg>