<?xml version="1.0" standalone="no"?><!DOCTYPE svg PUBLIC "-//W3C//DTD SVG 1.1//EN" "http://www.w3.org/Graphics/SVG/1.1/DTD/svg11.dtd"><svg t="1652579073745" class="icon" viewBox="0 0 1024 1024" version="1.1" xmlns="http://www.w3.org/2000/svg" p-id="8203" xmlns:xlink="http://www.w3.org/1999/xlink" width="200" height="200"><defs><style type="text/css">@font-face { font-family: feedback-iconfont; src: url("//at.alicdn.com/t/font_1031158_u69w8yhxdu.woff2?t=1630033759944") format("woff2"), url("//at.alicdn.com/t/font_1031158_u69w8yhxdu.woff?t=1630033759944") format("woff"), url("//at.alicdn.com/t/font_1031158_u69w8yhxdu.ttf?t=1630033759944") format("truetype"); }
</style></defs><path d="M512 72c59.4 0 117 11.6 171.2 34.5 52.4 22.2 99.4 53.9 139.9 94.3 40.4 40.4 72.2 87.5 94.3 139.9C940.4 395 952 452.6 952 512s-11.6 117-34.5 171.2c-22.2 52.4-53.9 99.4-94.3 139.9-40.4 40.4-87.5 72.2-139.9 94.3C629 940.4 571.4 952 512 952s-117-11.6-171.2-34.5c-52.4-22.2-99.4-53.9-139.9-94.3-40.4-40.4-72.2-87.5-94.3-139.9C83.6 629 72 571.4 72 512s11.6-117 34.5-171.2c22.2-52.4 53.9-99.4 94.3-139.9 40.4-40.4 87.5-72.2 139.9-94.3C395 83.6 452.6 72 512 72m0-72C229.2 0 0 229.2 0 512s229.2 512 512 512 512-229.2 512-512S794.8 0 512 0z" p-id="8204" fill="#3b82f6"></path><path d="M350.8 709.2c-9.2 0-18.4-3.5-25.5-10.5-14.1-14.1-14.1-36.9 0-50.9l322.4-322.4c14.1-14.1 36.9-14.1 50.9 0 14.1 14.1 14.1 36.9 0 50.9L376.3 698.7c-7.1 7-16.3 10.5-25.5 10.5z" p-id="8205" fill="#3b82f6"></path><path d="M673.2 709.2c-9.2 0-18.4-3.5-25.5-10.5L325.3 376.3c-14.1-14.1-14.1-36.9 0-50.9 14.1-14.1 36.9-14.1 50.9 0l322.4 322.4c14.1 14.1 14.1 36.9 0 50.9-7 7-16.2 10.5-25.4 10.5z" p-id="8206" fill="#3b82f6"></path></svg>