<?xml version="1.0" standalone="no"?><!DOCTYPE svg PUBLIC "-//W3C//DTD SVG 1.1//EN" "http://www.w3.org/Graphics/SVG/1.1/DTD/svg11.dtd"><svg t="1652583516489" class="icon" viewBox="0 0 1024 1024" version="1.1" xmlns="http://www.w3.org/2000/svg" p-id="13530" xmlns:xlink="http://www.w3.org/1999/xlink" width="200" height="200"><defs><style type="text/css">@font-face { font-family: feedback-iconfont; src: url("//at.alicdn.com/t/font_1031158_u69w8yhxdu.woff2?t=1630033759944") format("woff2"), url("//at.alicdn.com/t/font_1031158_u69w8yhxdu.woff?t=1630033759944") format("woff"), url("//at.alicdn.com/t/font_1031158_u69w8yhxdu.ttf?t=1630033759944") format("truetype"); }
</style></defs><path d="M224.888933 725.854623l141.887544-33.385365c11.128455 97.373725 62.597687 147.452283 154.407696 150.23363 114.066919 2.78237 169.709193-48.686862 166.926824-154.407696-8.346085-83.4629-63.98836-126.586047-166.926824-129.368416L416.854013 558.926776 416.854013 437.906491l70.943772 0c105.71981 0 161.363108-44.51382 166.926824-133.541459-2.78237-72.334445-44.51382-109.893876-125.195374-112.675222-80.681554 5.564739-129.368416 51.469232-146.060587 137.714502l-141.887544-33.385365c38.949081-150.23363 133.541459-226.742141 283.775088-229.52451 178.055279 2.78237 269.865287 83.463923 275.429003 242.043638 0 83.4629-45.904493 143.279241-137.714502 179.445952 111.284549 44.51382 168.317497 114.066919 171.099866 208.658274-11.128455 166.926824-112.675222 254.56379-304.641325 262.909875C357.038696 956.770829 255.491928 878.871645 224.888933 725.854623z" p-id="13531"></path></svg>