<?xml version="1.0" standalone="no"?><!DOCTYPE svg PUBLIC "-//W3C//DTD SVG 1.1//EN" "http://www.w3.org/Graphics/SVG/1.1/DTD/svg11.dtd"><svg t="1652583501157" class="icon" viewBox="0 0 1024 1024" version="1.1" xmlns="http://www.w3.org/2000/svg" p-id="13115" xmlns:xlink="http://www.w3.org/1999/xlink" width="200" height="200"><defs><style type="text/css">@font-face { font-family: feedback-iconfont; src: url("//at.alicdn.com/t/font_1031158_u69w8yhxdu.woff2?t=1630033759944") format("woff2"), url("//at.alicdn.com/t/font_1031158_u69w8yhxdu.woff?t=1630033759944") format("woff"), url("//at.alicdn.com/t/font_1031158_u69w8yhxdu.ttf?t=1630033759944") format("truetype"); }
</style></defs><path d="M546.461538 0c93.144615 0 170.121846 28.140308 230.872616 84.401231C836.745846 140.662154 866.461538 212.401231 866.461538 302.414769c0 87.217231-51.081846 165.986462-113.191384 237.725539-37.809231 42.180923-105.334154 95.645538-199.837539 161.752615-98.579692 67.505231-157.991385 126.582154-179.593846 177.230769H849.132308L829.971692 1024H157.538462c0-99.564308 48.364308-185.895385 109.23323-260.312615l5.789539-6.931693c35.111385-42.200615 109.371077-104.093538 221.459692-184.280615l15.753846-11.579077c53.76-39.975385 91.904-73.964308 116.578462-100.942769 41.846154-49.230769 82.116923-102.675692 82.116923-158.936616 0-54.862769-14.848-95.645538-41.846154-122.387692-28.356923-26.722462-70.222769-39.384615-125.577846-39.384615-57.206154 0-100.647385 19.574154-130.323692 58.702769l-3.347693 4.608c-29.715692 39.384615-45.922462 99.859692-48.620307 178.628923H200.782769C202.082462 272.068923 231.325538 184.123077 289.732923 116.046769l5.572923-6.340923C358.754462 36.568615 442.486154 0 546.441846 0z" p-id="13116" fill="#3b82f6"></path></svg>