<?xml version="1.0" standalone="no"?><!DOCTYPE svg PUBLIC "-//W3C//DTD SVG 1.1//EN" "http://www.w3.org/Graphics/SVG/1.1/DTD/svg11.dtd"><svg t="1651940383260" class="icon" viewBox="0 0 1024 1024" version="1.1" xmlns="http://www.w3.org/2000/svg" p-id="12411" xmlns:xlink="http://www.w3.org/1999/xlink" width="200" height="200"><defs><style type="text/css">@font-face { font-family: feedback-iconfont; src: url("//at.alicdn.com/t/font_1031158_u69w8yhxdu.woff2?t=1630033759944") format("woff2"), url("//at.alicdn.com/t/font_1031158_u69w8yhxdu.woff?t=1630033759944") format("woff"), url("//at.alicdn.com/t/font_1031158_u69w8yhxdu.ttf?t=1630033759944") format("truetype"); }
</style></defs><path d="M736.256 570.368q47.104 0 88.064 17.408t71.68 48.128 48.128 71.68 17.408 88.064-17.408 88.064-48.128 71.68-71.68 48.128-88.064 17.408-88.064-17.408-71.68-48.128-48.128-71.68-17.408-88.064 17.408-88.064 48.128-71.68 71.68-48.128 88.064-17.408zM864.256 832.512q13.312 0 22.528-9.216t9.216-22.528-9.216-25.6-22.528-12.288l-94.208 0 0-94.208q0-13.312-10.24-22.528t-23.552-9.216-24.576 9.216-11.264 22.528l0 94.208-92.16 0q-14.336 0-23.04 12.288t-8.704 25.6 8.704 22.528 23.04 9.216l92.16 0 0 92.16q0 13.312 11.264 22.528t24.576 9.216 23.552-9.216 10.24-22.528l0-92.16 94.208 0zM527.36 591.872q-41.984 43.008-63.488 96.256t-21.504 109.056 21.504 109.056 63.488 95.232q6.144 6.144 12.288 11.776t13.312 10.752l-291.84 0q-28.672 0-48.64-19.968t-19.968-48.64l0-696.32q0-28.672 19.968-48.64t48.64-19.968l60.416 0 0-70.656q0-23.552 19.968-39.936t43.52-16.384 41.472 16.384 17.92 39.936l0 70.656 197.632 0 0-70.656q0-23.552 18.432-39.936t45.056-16.384 44.032 16.384 17.408 39.936l0 70.656 60.416 0q28.672 0 48.64 19.968t19.968 48.64l0 299.008q-41.984-28.672-91.136-41.472t-98.304-8.704-95.232 25.088-83.968 58.88zM476.16 375.808q-13.312 0-22.528 12.8t-9.216 26.112q0 14.336 9.216 25.6t22.528 11.264l264.192 0q13.312 0 22.528-11.264t9.216-25.6q0-13.312-9.216-26.112t-22.528-12.8l-264.192 0zM352.256 833.536q13.312 0 22.528-10.24t9.216-23.552q0-14.336-9.216-25.088t-22.528-10.752-22.528 10.752-9.216 25.088q0 13.312 9.216 23.552t22.528 10.24zM415.744 641.024q14.336 0 23.552-10.24t9.216-23.552-9.216-23.552-23.552-10.24l-63.488 0q-13.312 0-22.528 10.24t-9.216 23.552 9.216 23.552 22.528 10.24l63.488 0z" p-id="12412"></path></svg>