<?xml version="1.0" standalone="no"?><!DOCTYPE svg PUBLIC "-//W3C//DTD SVG 1.1//EN" "http://www.w3.org/Graphics/SVG/1.1/DTD/svg11.dtd"><svg t="1651595784379" class="icon" viewBox="0 0 1024 1024" version="1.1" xmlns="http://www.w3.org/2000/svg" p-id="25364" xmlns:xlink="http://www.w3.org/1999/xlink" width="200" height="200"><defs><style type="text/css">@font-face { font-family: feedback-iconfont; src: url("//at.alicdn.com/t/font_1031158_u69w8yhxdu.woff2?t=1630033759944") format("woff2"), url("//at.alicdn.com/t/font_1031158_u69w8yhxdu.woff?t=1630033759944") format("woff"), url("//at.alicdn.com/t/font_1031158_u69w8yhxdu.ttf?t=1630033759944") format("truetype"); }
</style></defs><path d="M359.6 169h316.5c18.3 0 33.1-15.9 33.1-35.2v-0.4c0-19.4-15-35.2-33.1-35.2H359.6c-18.3 0-33.1 15.9-33.1 35.2v0.4c-0.1 19.4 14.9 35.2 33.1 35.2z" p-id="25365" fill="#3b82f6"></path><path d="M864.2 381.8V207.2c0.2-39.7-32-71.9-71.7-71.9h-53.8c-0.9 37.5-31.8 67.9-69.5 67.9H363.9c-38.3 0-69.7-31.3-69.7-69.7H236c-39.1 0-70.9 31.7-70.9 70.9v652.8c0 39.1 31.7 70.9 70.9 70.9h81.5l546.7-496.4v-49.9z m-464.1 427h-92.2c-19.3 0-35-15.8-35-35s15.8-35 35-35h92.2c19.3 0 35 15.8 35 35 0 19.3-15.8 35-35 35z m167.6-177.3c-0.1 17.6-14.4 31.9-31.9 31.9h-231c-17.5 0-31.9-14.3-31.9-31.9v-6.3c0-17.5 14.3-31.9 31.9-31.9h231c17.5 0 31.9 14.3 31.9 31.9v6.3z m154-113.1H307.9c-19.3 0-35-15.8-35-35 0-19.3 15.8-35 35-35h413.8c19.3 0 35 15.8 35 35 0 19.3-15.8 35-35 35z m1.9-146.8H306.1c-18.2 0-33.2-14.9-33.2-33.2 0-18.3 14.9-33.2 33.2-33.2h417.5c18.2 0 33.2 14.9 33.2 33.2 0 18.3-14.9 33.2-33.2 33.2z" p-id="25366" fill="#3b82f6"></path><path d="M764 561.4L517.1 791.6l93.6 101.5 247-230.2zM832.7 506.3l-40.2 37.4 84.8 92 40.1-37.4zM492.3 814.7l-22.4 103.7c-1.5 7.1 4.4 13.5 11.6 12.5l104.4-14.6-93.6-101.6z" p-id="25367" fill="#3b82f6"></path></svg>