<?xml version="1.0" standalone="no"?><!DOCTYPE svg PUBLIC "-//W3C//DTD SVG 1.1//EN" "http://www.w3.org/Graphics/SVG/1.1/DTD/svg11.dtd"><svg t="1652329969723" class="icon" viewBox="0 0 1024 1024" version="1.1" xmlns="http://www.w3.org/2000/svg" p-id="5040" xmlns:xlink="http://www.w3.org/1999/xlink" width="200" height="200"><defs><style type="text/css">@font-face { font-family: feedback-iconfont; src: url("//at.alicdn.com/t/font_1031158_u69w8yhxdu.woff2?t=1630033759944") format("woff2"), url("//at.alicdn.com/t/font_1031158_u69w8yhxdu.woff?t=1630033759944") format("woff"), url("//at.alicdn.com/t/font_1031158_u69w8yhxdu.ttf?t=1630033759944") format("truetype"); }
</style></defs><path d="M839.036 130.458H184.964c-30.102 0-54.506 24.404-54.506 54.506v654.072c0 30.102 24.404 54.506 54.506 54.506h654.072c30.102 0 54.506-24.404 54.506-54.506V184.964c0-30.102-24.404-54.506-54.506-54.506z m0 681.328c0 15.05-12.196 27.249-27.249 27.249H213.066c-15.05 0-27.249-12.196-27.249-27.249V213.065c0-15.05 12.196-27.249 27.249-27.249h598.721c15.049 0 27.249 12.196 27.249 27.249v598.721zM730.028 421.639H602.704V294.822c0-30.091-24.402-54.499-54.501-54.499H295.448c-30.098 0-54.501 24.401-54.501 54.499v253.89c0 30.091 24.402 54.499 54.501 54.499h127.324v126.817c0 30.091 24.402 54.499 54.501 54.499h252.755c30.098 0 54.501-24.401 54.501-54.499v-253.89c0-30.091-24.402-54.499-54.501-54.499zM323.36 548.137c-15.05 0-27.251-12.207-27.251-27.26V323.183c0-15.055 12.201-27.26 27.251-27.26h196.928c15.051 0 27.251 12.207 27.251 27.26v98.458h-70.267c-30.098 0-54.501 24.401-54.501 54.499v71.998H323.36z m224.179-70.897v43.638c0 15.055-12.202 27.26-27.251 27.26h-42.353V504.5c0-15.055 12.202-27.26 27.251-27.26h42.353z m181.826 224.953c0 15.055-12.201 27.26-27.251 27.26H505.186c-15.05 0-27.251-12.207-27.251-27.26v-98.981h70.267c30.098 0 54.501-24.401 54.501-54.499v-71.474h99.411c15.05 0 27.251 12.207 27.251 27.26v197.693z" p-id="5041" fill="#3b82f6"></path></svg>