<?xml version="1.0" standalone="no"?><!DOCTYPE svg PUBLIC "-//W3C//DTD SVG 1.1//EN" "http://www.w3.org/Graphics/SVG/1.1/DTD/svg11.dtd"><svg t="1652245349447" class="icon" viewBox="0 0 1024 1024" version="1.1" xmlns="http://www.w3.org/2000/svg" p-id="3247" xmlns:xlink="http://www.w3.org/1999/xlink" width="200" height="200"><defs><style type="text/css">@font-face { font-family: feedback-iconfont; src: url("//at.alicdn.com/t/font_1031158_u69w8yhxdu.woff2?t=1630033759944") format("woff2"), url("//at.alicdn.com/t/font_1031158_u69w8yhxdu.woff?t=1630033759944") format("woff"), url("//at.alicdn.com/t/font_1031158_u69w8yhxdu.ttf?t=1630033759944") format("truetype"); }
</style></defs><path d="M135.6 960.4c-13.8 0-26-8.3-29.7-20.5-26.5-82.7-22.3-191.7-22-196.1 3.1-73.1 25.1-148.3 63.5-216.7 35-62.4 82.7-118.3 139.5-163.3-2.8-4.4-5.7-9.1-8.2-13.8-20.9-37.7-31.9-78.8-30.8-116 1.4-41.9 17.8-74.4 46.6-91.8 28-16.6 63-16.4 97.4 0 26.5-48.6 70.9-78.3 119.5-78.3 47.2 0 89.8 27.3 116.6 73.3 30.5-11.2 61-9.6 85.6 5.2 28.8 17.4 45.5 49.9 46.6 91.8 1.1 36.7-9.6 77.2-29.9 114.7C832 416 941.6 537.4 941.6 748.6v4.4c0 28.9 0.6 116.5-22 186.8-4 12.2-16.1 20.5-29.7 20.5H135.6z m205.3-773.3c-4.5 0-8.8 1-12.4 3.1-11 6.5-17.8 23.7-18.4 45.5-0.8 27.1 7.9 59.3 24 88.2 5.7 10.1 12.1 19.8 19.2 28.6 10.2 12.5 7.3 30.2-5.9 39.8C229.1 476.3 152 612.1 146.1 746c0 1-3.4 86.1 13.8 157.1l706.2-0.3c14.1-58.5 13.8-125.9 13.6-149.8v-4.7c0-160.2-71.7-287.2-207.3-366.7-7.1-4.2-11.9-10.7-13.6-17.9-1.7-7.5-0.3-15.1 4.2-21.6 4.2-6 7.9-12 11.3-18.2 16.1-28.9 24.9-61.1 24-88.2-0.6-21.8-7.6-39-18.3-45.5-16.1-9.6-41 5.5-48 10.1-7.9 5.5-18.1 7-27.7 4.2-9.3-2.6-16.9-9.4-20.1-17.9-15.2-39.5-43.5-65.3-72.9-65.3-31.1 0-61.3 29.4-75.1 73.1-3.1 9.4-11 16.6-21.2 19.5-10.2 2.6-21.2 0.3-29.1-6.2-12.8-10.7-30.3-20.6-45-20.6z m0 0" p-id="3248"></path><path d="M618.2 665.4h-74.3v-54.8h74.3c17.2 0 31.3-13.8 31.3-31.3 0-17.2-14.1-31.3-31.3-31.3h-28.8l39.8-33.3c13.3-11 15-30.8 4-44-11-13.3-30.8-15-44-4L514.6 529 440 466.6c-13.3-11-33-9.3-44.1 4-11 13.3-9.3 33 4 44l39.8 33.3H407c-17.2 0-31.3 14.1-31.3 31.3 0 17.2 14.1 31.3 31.3 31.3h74.3v54.8H407c-17.2 0-31.3 14.1-31.3 31.3s14.1 31.3 31.3 31.3h74.3v93.8c0 17.2 14.1 31.3 31.3 31.3 17.2 0 31.3-14.1 31.3-31.3v-93.8h74.3c17.2 0 31.3-14.1 31.3-31.3s-14.1-31.2-31.3-31.2z" p-id="3249"></path></svg>