<?xml version="1.0" standalone="no"?><!DOCTYPE svg PUBLIC "-//W3C//DTD SVG 1.1//EN" "http://www.w3.org/Graphics/SVG/1.1/DTD/svg11.dtd"><svg t="1651327755213" class="icon" viewBox="0 0 1024 1024" version="1.1" xmlns="http://www.w3.org/2000/svg" p-id="6580" xmlns:xlink="http://www.w3.org/1999/xlink" 
width="33" height="33"><defs><style type="text/css">@font-face { font-family: feedback-iconfont; src: url("//at.alicdn.com/t/font_1031158_u69w8yhxdu.woff2?t=1630033759944") format("woff2"), url("//at.alicdn.com/t/font_1031158_u69w8yhxdu.woff?t=1630033759944") format("woff"), url("//at.alicdn.com/t/font_1031158_u69w8yhxdu.ttf?t=1630033759944") format("truetype"); }
</style></defs><path d="M0 0m182.570457 0l658.859086 0q182.570457 0 182.570457 182.570457l0 658.859086q0 182.570457-182.570457 182.570457l-658.859086 0q-182.570457 0-182.570457-182.570457l0-658.859086q0-182.570457 182.570457-182.570457Z" fill="#0F81F2" p-id="6581"></path><path d="M723.293173 591.287679h-303.995605L357.005515 272.730577a34.618717 34.618717 0 0 0-37.864221-31.135209h-65.083188a34.380713 34.380713 0 1 0 0 68.73979H294.259091l62.746424 321.066959a36.046739 36.046739 0 0 0 34.618716 28.646988h331.668942a34.380713 34.380713 0 0 0 0-68.761426z" fill="#FFFFFF" opacity=".56" p-id="6582"></path><path d="M418.4321 727.295962m-55.3034 0a55.3034 55.3034 0 1 0 110.6068 0 55.3034 55.3034 0 1 0-110.6068 0Z" fill="#FFFFFF" opacity=".56" p-id="6583"></path><path d="M672.490206 727.295962m-55.303399 0a55.3034 55.3034 0 1 0 110.606799 0 55.3034 55.3034 0 1 0-110.606799 0Z" fill="#FFFFFF" opacity=".56" p-id="6584"></path><path d="M723.942274 546.478078H377.603651a44.831238 44.831238 0 0 1-43.987407-36.219832l-24.557652-125.492848a44.831238 44.831238 0 0 1 43.987407-53.442644h419.557208c24.752382 0 37.539671 26.093858 29.166269 56.147231l-34.618716 123.761912c-5.538995 19.927399-24.752382 35.246181-43.208486 35.246181z" fill="#FFFFFF" opacity=".56" p-id="6585"></path></svg>